# xmcd
#
# Track frame offsets: 
#        150
#        15332
#        36041
#        49938
#        74943
#        84387
#        95993
#        113544
#        128986
#        154663
#        160495
#        198990
#        219893
#
# Disc length: 3150 seconds
#
# Revision: 1
# Processed by: cddbd v1.5.1PL2 Copyright (c) Steve Scherf et al.
# Submitted via: ExactAudioCopy v0.95b3
#
DISCID=b00c4c0d
DTITLE=Chatham County Line - Chatham County Line
DYEAR=2003
DGENRE=Bluegrass
TTITLE0=Closing Town
TTITLE1=WSM
TTITLE2=Tennessee Valley Authority
TTITLE3=Wichita Central
TTITLE4=Sightseeing
TTITLE5=Bacon in the Skillet
TTITLE6=Brings My Tears
TTITLE7=Stella Mae
TTITLE8=The Legend of Old 99
TTITLE9=Butterwheel
TTITLE10=Song for John Hartford
TTITLE11=I Shall Be Released
TTITLE12=There's a Light
EXTD=
EXTT0=
EXTT1=
EXTT2=
EXTT3=
EXTT4=
EXTT5=
EXTT6=
EXTT7=
EXTT8=
EXTT9=
EXTT10=
EXTT11=
EXTT12=
PLAYORDER=
